<svg xmlns="http://www.w3.org/2000/svg" version="1.1" xmlns:xlink="http://www.w3.org/1999/xlink" xmlns:svgjs="http://svgjs.dev/svgjs" width="1440" height="560" preserveAspectRatio="none" viewBox="0 0 1440 560"><g mask="url(&quot;#SvgjsMask1005&quot;)" fill="none"><rect width="1440" height="560" x="0" y="0" fill="rgba(2, 6, 23, 1)"></rect><path d="M837.198,311.85C876.363,310.07,897.891,270.037,915.584,235.052C931.062,204.447,940.294,169.842,924.381,139.461C907.376,106.994,873.849,85.256,837.198,85.394C800.764,85.531,769.493,108.637,751.14,140.111C732.633,171.848,728.957,209.94,745.416,242.786C763.8,279.475,796.203,313.713,837.198,311.85" fill="rgba(15, 23, 42, 1)" class="triangle-float3"></path><path d="M805.393,351.662C844.749,350.512,883.811,338.92,905.817,306.271C930.694,269.363,942.398,220.577,919.456,182.437C897,145.105,848.889,136.872,805.393,139.322C766.643,141.504,732.571,161.482,711.606,194.143C688.53,230.093,672.41,275.746,694.265,312.451C715.803,348.625,763.31,352.891,805.393,351.662" fill="rgba(15, 23, 42, 1)" class="triangle-float3"></path><path d="M928.806,350.26C958.099,349.575,983.571,330.324,996.575,304.067C1008.276,280.442,1001.063,253.665,987.983,230.775C974.773,207.657,955.4,186.768,928.806,185.47C900.18,184.073,873.499,199.922,858.701,224.466C843.395,249.853,840.882,281.479,855.313,307.373C870.112,333.928,898.414,350.971,928.806,350.26" fill="rgba(15, 23, 42, 1)" class="triangle-float3"></path><path d="M428.508,609.266C474.736,611.279,519.843,589.688,543.685,550.031C568.232,509.202,571.277,455.946,544.29,416.687C519.856,381.142,471.535,379.453,428.508,382.479C391.835,385.058,357.376,400.041,337.872,431.205C317.058,464.464,311.688,505.738,329.486,540.704C349.006,579.052,385.519,607.394,428.508,609.266" fill="rgba(15, 23, 42, 1)" class="triangle-float1"></path><path d="M515.5423441001682 382.1412534188801L541.5940356611519 234.39476869878487 393.8475509410567 208.34307713780112 367.7958593800729 356.08956185789634z" fill="rgba(15, 23, 42, 1)" class="triangle-float3"></path><path d="M812.977,494.624C842.06,494.446,875.016,490.682,888.84,465.093C902.286,440.204,885.246,412.226,870.551,388.053C856.669,365.217,839.693,340.95,812.977,340.301C785.467,339.633,764.783,361.707,750.345,385.133C734.928,410.149,720.9,440.524,735.491,466.031C750.143,491.644,783.47,494.804,812.977,494.624" fill="rgba(15, 23, 42, 1)" class="triangle-float2"></path></g><defs><mask id="SvgjsMask1005"><rect width="1440" height="560" fill="#ffffff"></rect></mask><style>
                @keyframes float1 {
                    0%{transform: translate(0, 0)}
                    50%{transform: translate(-10px, 0)}
                    100%{transform: translate(0, 0)}
                }

                .triangle-float1 {
                    animation: float1 5s infinite;
                }

                @keyframes float2 {
                    0%{transform: translate(0, 0)}
                    50%{transform: translate(-5px, -5px)}
                    100%{transform: translate(0, 0)}
                }

                .triangle-float2 {
                    animation: float2 4s infinite;
                }

                @keyframes float3 {
                    0%{transform: translate(0, 0)}
                    50%{transform: translate(0, -10px)}
                    100%{transform: translate(0, 0)}
                }

                .triangle-float3 {
                    animation: float3 6s infinite;
                }
            </style></defs></svg>