<svg xmlns="http://www.w3.org/2000/svg" version="1.1" xmlns:xlink="http://www.w3.org/1999/xlink" xmlns:svgjs="http://svgjs.dev/svgjs" width="1440" height="560" preserveAspectRatio="none" viewBox="0 0 1440 560"><g mask="url(&quot;#SvgjsMask1006&quot;)" fill="none"><rect width="1440" height="560" x="0" y="0" fill="rgba(2, 6, 23, 1)"></rect><path d="M625 7L624 363" stroke-width="8" stroke="url(&quot;#SvgjsLinearGradient1007&quot;)" stroke-linecap="round" class="Down"></path><path d="M928 6L927 293" stroke-width="10" stroke="url(&quot;#SvgjsLinearGradient1007&quot;)" stroke-linecap="round" class="Down"></path><path d="M349 231L348 479" stroke-width="10" stroke="url(&quot;#SvgjsLinearGradient1007&quot;)" stroke-linecap="round" class="Down"></path><path d="M482 488L481 210" stroke-width="6" stroke="url(&quot;#SvgjsLinearGradient1008&quot;)" stroke-linecap="round" class="Up"></path><path d="M1017 43L1016 329" stroke-width="6" stroke="url(&quot;#SvgjsLinearGradient1008&quot;)" stroke-linecap="round" class="Up"></path><path d="M319 101L318 413" stroke-width="6" stroke="url(&quot;#SvgjsLinearGradient1007&quot;)" stroke-linecap="round" class="Down"></path><path d="M112 48L111 -364" stroke-width="10" stroke="url(&quot;#SvgjsLinearGradient1008&quot;)" stroke-linecap="round" class="Up"></path><path d="M1133 122L1132 302" stroke-width="10" stroke="url(&quot;#SvgjsLinearGradient1008&quot;)" stroke-linecap="round" class="Up"></path><path d="M752 299L751 532" stroke-width="6" stroke="url(&quot;#SvgjsLinearGradient1008&quot;)" stroke-linecap="round" class="Up"></path><path d="M1051 409L1050 768" stroke-width="6" stroke="url(&quot;#SvgjsLinearGradient1007&quot;)" stroke-linecap="round" class="Down"></path><path d="M454 114L453 420" stroke-width="8" stroke="url(&quot;#SvgjsLinearGradient1008&quot;)" stroke-linecap="round" class="Up"></path><path d="M867 147L866 374" stroke-width="8" stroke="url(&quot;#SvgjsLinearGradient1007&quot;)" stroke-linecap="round" class="Down"></path><path d="M223 545L222 733" stroke-width="10" stroke="url(&quot;#SvgjsLinearGradient1007&quot;)" stroke-linecap="round" class="Down"></path><path d="M73 293L72 -109" stroke-width="10" stroke="url(&quot;#SvgjsLinearGradient1008&quot;)" stroke-linecap="round" class="Up"></path><path d="M1347 282L1346 31" stroke-width="10" stroke="url(&quot;#SvgjsLinearGradient1008&quot;)" stroke-linecap="round" class="Up"></path><path d="M27 238L26 417" stroke-width="10" stroke="url(&quot;#SvgjsLinearGradient1008&quot;)" stroke-linecap="round" class="Up"></path><path d="M251 59L250 332" stroke-width="6" stroke="url(&quot;#SvgjsLinearGradient1008&quot;)" stroke-linecap="round" class="Up"></path><path d="M314 348L313 546" stroke-width="10" stroke="url(&quot;#SvgjsLinearGradient1008&quot;)" stroke-linecap="round" class="Up"></path><path d="M491 59L490 463" stroke-width="6" stroke="url(&quot;#SvgjsLinearGradient1007&quot;)" stroke-linecap="round" class="Down"></path><path d="M406 57L405 438" stroke-width="6" stroke="url(&quot;#SvgjsLinearGradient1008&quot;)" stroke-linecap="round" class="Up"></path><path d="M369 228L368 -4" stroke-width="8" stroke="url(&quot;#SvgjsLinearGradient1007&quot;)" stroke-linecap="round" class="Down"></path><path d="M1410 69L1409 -324" stroke-width="6" stroke="url(&quot;#SvgjsLinearGradient1008&quot;)" stroke-linecap="round" class="Up"></path><path d="M685 557L684 254" stroke-width="8" stroke="url(&quot;#SvgjsLinearGradient1008&quot;)" stroke-linecap="round" class="Up"></path><path d="M102 81L101 -75" stroke-width="8" stroke="url(&quot;#SvgjsLinearGradient1008&quot;)" stroke-linecap="round" class="Up"></path><path d="M793 390L792 -28" stroke-width="6" stroke="url(&quot;#SvgjsLinearGradient1008&quot;)" stroke-linecap="round" class="Up"></path><path d="M749 274L748 14" stroke-width="10" stroke="url(&quot;#SvgjsLinearGradient1007&quot;)" stroke-linecap="round" class="Down"></path><path d="M1271 467L1270 762" stroke-width="8" stroke="url(&quot;#SvgjsLinearGradient1008&quot;)" stroke-linecap="round" class="Up"></path><path d="M921 266L920 37" stroke-width="10" stroke="url(&quot;#SvgjsLinearGradient1008&quot;)" stroke-linecap="round" class="Up"></path><path d="M820 439L819 631" stroke-width="10" stroke="url(&quot;#SvgjsLinearGradient1007&quot;)" stroke-linecap="round" class="Down"></path><path d="M438 295L437 526" stroke-width="6" stroke="url(&quot;#SvgjsLinearGradient1007&quot;)" stroke-linecap="round" class="Down"></path><path d="M568 468L567 626" stroke-width="8" stroke="url(&quot;#SvgjsLinearGradient1008&quot;)" stroke-linecap="round" class="Up"></path><path d="M190 250L189 652" stroke-width="10" stroke="url(&quot;#SvgjsLinearGradient1007&quot;)" stroke-linecap="round" class="Down"></path><path d="M609 231L608 -168" stroke-width="6" stroke="url(&quot;#SvgjsLinearGradient1008&quot;)" stroke-linecap="round" class="Up"></path><path d="M41 280L40 447" stroke-width="10" stroke="url(&quot;#SvgjsLinearGradient1007&quot;)" stroke-linecap="round" class="Down"></path><path d="M26 402L25 752" stroke-width="6" stroke="url(&quot;#SvgjsLinearGradient1008&quot;)" stroke-linecap="round" class="Up"></path><path d="M439 326L438 45" stroke-width="8" stroke="url(&quot;#SvgjsLinearGradient1007&quot;)" stroke-linecap="round" class="Down"></path></g><defs><mask id="SvgjsMask1006"><rect width="1440" height="560" fill="#ffffff"></rect></mask><linearGradient x1="0%" y1="0%" x2="0%" y2="100%" id="SvgjsLinearGradient1007"><stop stop-color="rgba(30, 41, 59, 0)" offset="0"></stop><stop stop-color="rgba(30, 41, 59, 1)" offset="1"></stop></linearGradient><linearGradient x1="0%" y1="100%" x2="0%" y2="0%" id="SvgjsLinearGradient1008"><stop stop-color="rgba(30, 41, 59, 0)" offset="0"></stop><stop stop-color="rgba(30, 41, 59, 1)" offset="1"></stop></linearGradient></defs></svg>